<svg id="visual" viewBox="0 0 960 540" width="960" height="540" xmlns="http://www.w3.org/2000/svg" xmlns:xlink="http://www.w3.org/1999/xlink" version="1.1"><rect x="0" y="0" width="960" height="540" fill="#f5f5f5"></rect><path d="M0 339L17.8 343.8C35.7 348.7 71.3 358.3 106.8 365C142.3 371.7 177.7 375.3 213.2 368.8C248.7 362.3 284.3 345.7 320 342.2C355.7 338.7 391.3 348.3 426.8 347.7C462.3 347 497.7 336 533.2 337.3C568.7 338.7 604.3 352.3 640 352C675.7 351.7 711.3 337.3 746.8 326.5C782.3 315.7 817.7 308.3 853.2 311.8C888.7 315.3 924.3 329.7 942.2 336.8L960 344L960 541L942.2 541C924.3 541 888.7 541 853.2 541C817.7 541 782.3 541 746.8 541C711.3 541 675.7 541 640 541C604.3 541 568.7 541 533.2 541C497.7 541 462.3 541 426.8 541C391.3 541 355.7 541 320 541C284.3 541 248.7 541 213.2 541C177.7 541 142.3 541 106.8 541C71.3 541 35.7 541 17.8 541L0 541Z" fill="#4ade80"></path><path d="M0 369L17.8 374.2C35.7 379.3 71.3 389.7 106.8 390.3C142.3 391 177.7 382 213.2 380.8C248.7 379.7 284.3 386.3 320 380.8C355.7 375.3 391.3 357.7 426.8 356.2C462.3 354.7 497.7 369.3 533.2 377.8C568.7 386.3 604.3 388.7 640 384.8C675.7 381 711.3 371 746.8 368.2C782.3 365.3 817.7 369.7 853.2 370C888.7 370.3 924.3 366.7 942.2 364.8L960 363L960 541L942.2 541C924.3 541 888.7 541 853.2 541C817.7 541 782.3 541 746.8 541C711.3 541 675.7 541 640 541C604.3 541 568.7 541 533.2 541C497.7 541 462.3 541 426.8 541C391.3 541 355.7 541 320 541C284.3 541 248.7 541 213.2 541C177.7 541 142.3 541 106.8 541C71.3 541 35.7 541 17.8 541L0 541Z" fill="#00cfd4"></path><path d="M0 425L17.8 423.8C35.7 422.7 71.3 420.3 106.8 417.7C142.3 415 177.7 412 213.2 412.2C248.7 412.3 284.3 415.7 320 420.7C355.7 425.7 391.3 432.3 426.8 434C462.3 435.7 497.7 432.3 533.2 427.2C568.7 422 604.3 415 640 412.5C675.7 410 711.3 412 746.8 414.3C782.3 416.7 817.7 419.3 853.2 424.2C888.7 429 924.3 436 942.2 439.5L960 443L960 541L942.2 541C924.3 541 888.7 541 853.2 541C817.7 541 782.3 541 746.8 541C711.3 541 675.7 541 640 541C604.3 541 568.7 541 533.2 541C497.7 541 462.3 541 426.8 541C391.3 541 355.7 541 320 541C284.3 541 248.7 541 213.2 541C177.7 541 142.3 541 106.8 541C71.3 541 35.7 541 17.8 541L0 541Z" fill="#00b3ee"></path><path d="M0 469L17.8 467.3C35.7 465.7 71.3 462.3 106.8 461.5C142.3 460.7 177.7 462.3 213.2 463C248.7 463.7 284.3 463.3 320 460.5C355.7 457.7 391.3 452.3 426.8 447.5C462.3 442.7 497.7 438.3 533.2 442C568.7 445.7 604.3 457.3 640 460.8C675.7 464.3 711.3 459.7 746.8 457.2C782.3 454.7 817.7 454.3 853.2 455.8C888.7 457.3 924.3 460.7 942.2 462.3L960 464L960 541L942.2 541C924.3 541 888.7 541 853.2 541C817.7 541 782.3 541 746.8 541C711.3 541 675.7 541 640 541C604.3 541 568.7 541 533.2 541C497.7 541 462.3 541 426.8 541C391.3 541 355.7 541 320 541C284.3 541 248.7 541 213.2 541C177.7 541 142.3 541 106.8 541C71.3 541 35.7 541 17.8 541L0 541Z" fill="#0090f6"></path><path d="M0 488L17.8 489C35.7 490 71.3 492 106.8 494.3C142.3 496.7 177.7 499.3 213.2 497.3C248.7 495.3 284.3 488.7 320 483.7C355.7 478.7 391.3 475.3 426.8 474C462.3 472.7 497.7 473.3 533.2 477.3C568.7 481.3 604.3 488.7 640 490.2C675.7 491.7 711.3 487.3 746.8 484.8C782.3 482.3 817.7 481.7 853.2 479C888.7 476.3 924.3 471.7 942.2 469.3L960 467L960 541L942.2 541C924.3 541 888.7 541 853.2 541C817.7 541 782.3 541 746.8 541C711.3 541 675.7 541 640 541C604.3 541 568.7 541 533.2 541C497.7 541 462.3 541 426.8 541C391.3 541 355.7 541 320 541C284.3 541 248.7 541 213.2 541C177.7 541 142.3 541 106.8 541C71.3 541 35.7 541 17.8 541L0 541Z" fill="#2563eb"></path></svg>