<svg id="visual" viewBox="0 0 960 540" width="960" height="540" xmlns="http://www.w3.org/2000/svg" xmlns:xlink="http://www.w3.org/1999/xlink" version="1.1"><rect x="0" y="0" width="960" height="540" fill="#f5f5f5"></rect><path d="M0 320L22.8 325.3C45.7 330.7 91.3 341.3 137 340.8C182.7 340.3 228.3 328.7 274 333.7C319.7 338.7 365.3 360.3 411.2 373.5C457 386.7 503 391.3 548.8 385.7C594.7 380 640.3 364 686 355.3C731.7 346.7 777.3 345.3 823 342C868.7 338.7 914.3 333.3 937.2 330.7L960 328L960 541L937.2 541C914.3 541 868.7 541 823 541C777.3 541 731.7 541 686 541C640.3 541 594.7 541 548.8 541C503 541 457 541 411.2 541C365.3 541 319.7 541 274 541C228.3 541 182.7 541 137 541C91.3 541 45.7 541 22.8 541L0 541Z" fill="#4ade80"></path><path d="M0 362L22.8 361C45.7 360 91.3 358 137 362.7C182.7 367.3 228.3 378.7 274 387.2C319.7 395.7 365.3 401.3 411.2 397.5C457 393.7 503 380.3 548.8 377.2C594.7 374 640.3 381 686 384C731.7 387 777.3 386 823 390.3C868.7 394.7 914.3 404.3 937.2 409.2L960 414L960 541L937.2 541C914.3 541 868.7 541 823 541C777.3 541 731.7 541 686 541C640.3 541 594.7 541 548.8 541C503 541 457 541 411.2 541C365.3 541 319.7 541 274 541C228.3 541 182.7 541 137 541C91.3 541 45.7 541 22.8 541L0 541Z" fill="#00cfd4"></path><path d="M0 421L22.8 427.3C45.7 433.7 91.3 446.3 137 450.2C182.7 454 228.3 449 274 446.8C319.7 444.7 365.3 445.3 411.2 441.2C457 437 503 428 548.8 422.7C594.7 417.3 640.3 415.7 686 417C731.7 418.3 777.3 422.7 823 425.7C868.7 428.7 914.3 430.3 937.2 431.2L960 432L960 541L937.2 541C914.3 541 868.7 541 823 541C777.3 541 731.7 541 686 541C640.3 541 594.7 541 548.8 541C503 541 457 541 411.2 541C365.3 541 319.7 541 274 541C228.3 541 182.7 541 137 541C91.3 541 45.7 541 22.8 541L0 541Z" fill="#00b3ee"></path><path d="M0 466L22.8 461.2C45.7 456.3 91.3 446.7 137 448.7C182.7 450.7 228.3 464.3 274 470.2C319.7 476 365.3 474 411.2 473.8C457 473.7 503 475.3 548.8 470.2C594.7 465 640.3 453 686 446.5C731.7 440 777.3 439 823 438.5C868.7 438 914.3 438 937.2 438L960 438L960 541L937.2 541C914.3 541 868.7 541 823 541C777.3 541 731.7 541 686 541C640.3 541 594.7 541 548.8 541C503 541 457 541 411.2 541C365.3 541 319.7 541 274 541C228.3 541 182.7 541 137 541C91.3 541 45.7 541 22.8 541L0 541Z" fill="#0090f6"></path><path d="M0 495L22.8 495C45.7 495 91.3 495 137 498.2C182.7 501.3 228.3 507.7 274 509.8C319.7 512 365.3 510 411.2 506.8C457 503.7 503 499.3 548.8 494.3C594.7 489.3 640.3 483.7 686 480.7C731.7 477.7 777.3 477.3 823 477C868.7 476.7 914.3 476.3 937.2 476.2L960 476L960 541L937.2 541C914.3 541 868.7 541 823 541C777.3 541 731.7 541 686 541C640.3 541 594.7 541 548.8 541C503 541 457 541 411.2 541C365.3 541 319.7 541 274 541C228.3 541 182.7 541 137 541C91.3 541 45.7 541 22.8 541L0 541Z" fill="#2563eb"></path></svg>